<!DOCTYPE svg PUBLIC "-//W3C//DTD SVG 20010904//EN" "http://www.w3.org/TR/2001/REC-SVG-20010904/DTD/svg10.dtd">
<svg version="1.0" xmlns="http://www.w3.org/2000/svg" width="1200px" height="625px" viewBox="0 0 12000 6250" preserveAspectRatio="xMidYMid meet">
<g id="layer101" fill="#000000" stroke="none">
<path d="M0 3125 l0 -3125 6000 0 6000 0 0 3125 0 3125 -6000 0 -6000 0 0 -3125z"/>
</g>
<g id="layer102" fill="#002e19" stroke="none">
</g>
<g id="layer103" fill="#313131" stroke="none">
<path d="M1390 2985 c-9 -11 -9 -26 0 -67 6 -29 18 -96 26 -148 8 -52 21 -137 29 -188 8 -50 21 -134 29 -185 8 -50 19 -121 25 -157 12 -74 35 -212 56 -345 8 -49 21 -130 29 -180 9 -49 18 -112 22 -140 3 -27 10 -66 15 -85 4 -19 13 -71 19 -115 20 -163 34 -218 55 -226 28 -11 359 -11 388 0 21 8 25 20 36 93 7 45 19 121 27 168 7 47 20 128 28 180 8 52 20 124 26 160 5 36 17 106 24 155 34 210 46 285 61 370 8 50 20 122 26 160 5 39 16 108 23 155 8 47 19 121 26 165 7 44 18 111 26 150 9 47 10 73 3 80 -14 14 -242 19 -267 6 -15 -8 -22 -29 -31 -93 -18 -130 -32 -201 -42 -220 -9 -16 -28 -18 -174 -18 -146 0 -165 2 -173 18 -10 19 -27 107 -41 222 -7 51 -16 79 -27 87 -27 19 -228 18 -244 -2z m599 -582 c21 -5 23 -10 18 -47 -6 -38 -21 -139 -52 -351 -7 -49 -20 -137 -29 -195 -26 -177 -37 -230 -51 -230 -12 0 -33 92 -55 245 -6 44 -18 123 -25 175 -8 52 -19 131 -25 175 -6 44 -15 99 -20 123 -15 65 -13 100 8 105 27 7 204 7 231 0z"/>
</g>
<g id="layer104" fill="#00703d" stroke="none">
</g>
<g id="layer105" fill="#007c44" stroke="none">
</g>
<g id="layer106" fill="#009350" stroke="none">
<path d="M6985 5308 c-3 -7 -4 -222 -3 -478 l3 -465 470 0 470 0 0 475 0 475 -468 3 c-369 2 -469 0 -472 -10z"/>
<path d="M6986 4214 c-8 -20 -8 -917 0 -938 5 -14 56 -16 464 -16 374 0 460 2 469 14 8 9 10 144 9 482 l-3 469 -466 3 c-419 2 -467 1 -473 -14z"/>
<path d="M6980 2645 l0 -475 458 -2 c251 -2 465 -1 475 1 16 3 17 34 17 477 l0 474 -475 0 -475 0 0 -475z"/>
<path d="M7420 2020 l-435 -5 0 -465 0 -465 456 -5 c251 -3 463 -4 472 -2 16 3 17 42 17 467 0 316 -3 466 -11 470 -16 11 -37 11 -499 5z"/>
</g>
<g id="layer107" fill="#4e4e4e" stroke="none">
<path d="M1390 2985 c-9 -11 -9 -26 0 -67 6 -29 18 -96 26 -148 8 -52 21 -137 29 -188 8 -50 21 -134 29 -185 8 -50 19 -121 25 -157 12 -74 35 -212 56 -345 8 -49 21 -130 29 -180 9 -49 18 -112 22 -140 3 -27 10 -66 15 -85 4 -19 13 -71 19 -115 20 -163 34 -218 55 -226 28 -11 359 -11 388 0 21 8 25 20 36 93 7 45 19 121 27 168 7 47 20 128 28 180 8 52 20 124 26 160 5 36 17 106 24 155 34 210 46 285 61 370 8 50 20 122 26 160 5 39 16 108 23 155 8 47 19 121 26 165 7 44 18 111 26 150 9 47 10 73 3 80 -14 14 -242 19 -267 6 -15 -8 -22 -29 -31 -93 -18 -130 -32 -201 -42 -220 -9 -16 -28 -18 -174 -18 -146 0 -165 2 -173 18 -10 19 -27 107 -41 222 -7 51 -16 79 -27 87 -27 19 -228 18 -244 -2z m599 -582 c21 -5 23 -10 18 -47 -6 -38 -21 -139 -52 -351 -7 -49 -20 -137 -28 -195 -21 -137 -37 -221 -47 -240 -15 -26 -32 57 -86 430 -7 52 -18 131 -24 175 -6 44 -15 99 -20 123 -15 65 -13 100 8 105 27 7 204 7 231 0z"/>
</g>
<g id="layer108" fill="#00a359" stroke="none">
<path d="M6985 5308 c-3 -7 -4 -222 -3 -478 l3 -465 418 -3 c258 -1 417 1 417 7 0 5 15 11 33 13 l32 3 3 454 c2 349 5 457 15 463 6 4 -4 6 -23 3 -27 -4 -30 -3 -15 4 13 6 -137 10 -428 10 -349 1 -449 -2 -452 -11z"/>
<path d="M7913 4373 c4 -3 10 -3 14 0 3 4 0 7 -7 7 -7 0 -10 -3 -7 -7z"/>
<path d="M6986 4214 c-8 -20 -8 -918 0 -938 5 -14 51 -16 410 -16 243 0 404 4 404 9 0 5 -10 12 -22 14 -13 3 9 4 47 4 l70 -2 -3 453 c-2 318 1 452 8 452 6 0 8 5 5 10 -3 6 -11 10 -16 10 -6 0 -7 -4 -4 -10 3 -5 -3 -10 -14 -10 -14 0 -21 6 -21 20 0 20 -7 20 -429 20 -382 0 -430 -2 -435 -16z"/>
<path d="M7917 3293 c-4 -3 -7 -11 -7 -17 0 -6 5 -5 12 2 6 6 9 14 7 17 -3 3 -9 2 -12 -2z"/>
<path d="M6980 2644 l0 -475 465 2 c256 1 465 5 465 10 0 5 -4 9 -10 9 -7 0 -10 160 -10 459 l0 459 -31 6 c-17 3 -222 6 -455 6 l-424 0 0 -476z"/>
<path d="M6985 2008 c-3 -7 -4 -218 -3 -468 l3 -455 444 -3 c245 -1 448 1 453 6 4 4 8 214 8 467 l1 460 -451 3 c-355 2 -452 0 -455 -10z m892 -4 c-3 -3 -12 -4 -19 -1 -8 3 -5 6 6 6 11 1 17 -2 13 -5z m-14 -911 c-13 -2 -33 -2 -45 0 -13 2 -3 4 22 4 25 0 35 -2 23 -4z"/>
<path d="M7915 2000 c3 -5 8 -10 11 -10 3 0 2 5 -1 10 -3 6 -8 10 -11 10 -3 0 -2 -4 1 -10z"/>
</g>
<g id="layer109" fill="#00b764" stroke="none">
<path d="M8093 5313 l-23 -4 0 -469 0 -468 23 -6 c29 -8 901 -8 921 0 14 5 16 57 16 474 l0 468 -22 6 c-26 6 -880 6 -915 -1z"/>
<path d="M8088 4219 c-17 -9 -18 -43 -18 -473 l0 -463 25 -11 c34 -16 887 -17 916 -2 18 10 19 26 19 475 0 449 -1 465 -19 475 -27 14 -899 13 -923 -1z"/>
<path d="M8075 3108 c-3 -7 -4 -220 -3 -473 l3 -460 475 0 475 0 0 470 0 470 -473 3 c-373 2 -474 0 -477 -10z"/>
</g>
<g id="layer110" fill="#00d272" stroke="none">
</g>
<g id="layer111" fill="#01e17b" stroke="none">
<path d="M9182 5308 c-19 -19 -17 -921 2 -937 9 -8 143 -10 477 -9 l464 3 3 469 c2 369 0 471 -10 478 -22 13 -922 10 -936 -4z"/>
<path d="M9180 4211 c-6 -13 -10 -177 -10 -466 0 -289 4 -453 10 -466 10 -18 26 -19 468 -19 343 0 461 3 470 12 17 17 17 929 0 946 -9 9 -127 12 -470 12 -442 0 -458 -1 -468 -19z"/>
</g>
<g id="layer112" fill="#01ff8b" stroke="none">
<path d="M10288 5309 c-17 -9 -18 -42 -18 -469 0 -444 1 -460 19 -470 30 -15 903 -14 919 2 9 9 12 127 12 470 0 442 -1 458 -19 468 -27 14 -889 13 -913 -1z"/>
</g>
<g id="layer113" fill="#b4b4b4" stroke="none">
<path d="M1390 2985 c-9 -11 -9 -26 0 -67 6 -29 18 -96 26 -148 8 -52 21 -137 29 -188 8 -50 21 -134 29 -185 8 -50 19 -121 25 -157 12 -74 35 -212 56 -345 8 -49 21 -130 29 -180 9 -49 18 -112 22 -140 3 -27 10 -66 15 -85 4 -19 13 -71 19 -115 20 -163 34 -218 55 -226 28 -11 359 -11 388 0 21 8 25 20 36 93 7 45 19 121 27 168 7 47 20 128 28 180 8 52 20 124 26 160 5 36 17 106 24 155 34 210 46 285 61 370 8 50 20 122 26 160 5 39 16 108 23 155 8 47 19 121 26 165 7 44 18 111 26 150 9 47 10 73 3 80 -14 14 -242 19 -267 6 -15 -8 -22 -29 -31 -93 -18 -130 -32 -201 -42 -220 -9 -16 -28 -18 -174 -18 -146 0 -165 2 -173 18 -10 19 -27 107 -41 222 -7 51 -16 79 -27 87 -27 19 -228 18 -244 -2z m599 -582 c21 -5 23 -10 18 -47 -6 -38 -21 -139 -52 -351 -7 -49 -20 -137 -29 -195 -15 -107 -33 -217 -42 -258 -6 -31 -24 -18 -24 18 0 16 -6 62 -14 102 -8 40 -20 109 -26 153 -6 44 -18 123 -25 175 -8 52 -19 131 -25 175 -6 44 -15 99 -20 123 -15 65 -13 100 8 105 27 7 204 7 231 0z"/>
</g>
<g id="layer114" fill="#cfcfcf" stroke="none">
<path d="M1390 2985 c-9 -11 -9 -26 0 -67 6 -29 18 -96 26 -148 8 -52 21 -137 29 -188 8 -50 21 -134 29 -185 8 -50 19 -121 25 -157 12 -74 35 -212 56 -345 8 -49 21 -130 29 -180 9 -49 18 -112 22 -140 3 -27 10 -66 15 -85 4 -19 13 -71 19 -115 20 -163 34 -218 55 -226 28 -11 359 -11 388 0 21 8 25 20 36 93 7 45 19 121 27 168 7 47 20 128 28 180 8 52 20 124 26 160 5 36 17 106 24 155 34 210 46 285 61 370 8 50 20 122 26 160 5 39 16 108 23 155 8 47 19 121 26 165 7 44 18 111 26 150 9 47 10 73 3 80 -14 14 -242 19 -267 6 -15 -8 -22 -29 -31 -93 -18 -130 -32 -201 -42 -220 -9 -16 -28 -18 -174 -18 -146 0 -165 2 -173 18 -10 19 -27 107 -41 222 -7 51 -16 79 -27 87 -27 19 -228 18 -244 -2z m599 -582 c21 -5 23 -10 18 -47 -6 -38 -20 -137 -52 -351 -7 -49 -20 -141 -29 -204 -9 -62 -19 -117 -22 -122 -3 -5 -6 -43 -8 -85 -4 -85 -19 -114 -36 -68 -6 15 -9 38 -6 49 4 11 0 54 -8 95 -8 41 -20 111 -26 155 -6 44 -18 123 -25 175 -8 52 -19 131 -25 175 -6 44 -15 99 -20 123 -15 65 -13 100 8 105 27 7 204 7 231 0z"/>
</g>
<g id="layer115" fill="#fefefe" stroke="none">
<path d="M578 2993 c-17 -4 -18 -57 -18 -923 l0 -918 23 -6 c36 -9 231 -7 247 4 13 8 16 111 20 792 l5 783 225 3 c197 2 227 4 238 19 8 11 12 54 12 125 0 96 -2 108 -19 118 -19 10 -696 13 -733 3z"/>
<path d="M1390 2985 c-9 -11 -9 -26 0 -67 6 -29 18 -96 26 -148 8 -52 21 -137 29 -188 8 -50 21 -134 29 -185 8 -50 19 -121 25 -157 12 -74 35 -212 56 -345 8 -49 21 -130 29 -180 9 -49 18 -112 22 -140 3 -27 10 -66 15 -85 4 -19 13 -71 19 -115 20 -163 34 -218 55 -226 28 -11 359 -11 388 0 21 8 25 20 36 93 7 45 19 121 27 168 7 47 20 128 28 180 8 52 20 124 26 160 5 36 17 106 24 155 34 210 46 285 61 370 8 50 20 122 26 160 5 39 16 108 23 155 8 47 19 121 26 165 7 44 18 111 26 150 9 47 10 73 3 80 -14 14 -242 19 -267 6 -15 -8 -22 -29 -31 -93 -18 -130 -32 -201 -42 -220 -9 -16 -28 -18 -174 -18 -146 0 -165 2 -173 18 -10 19 -27 107 -41 222 -7 51 -16 79 -27 87 -27 19 -228 18 -244 -2z m599 -582 c26 -7 26 11 -4 -198 -16 -105 -23 -155 -59 -400 -9 -60 -20 -130 -25 -154 -5 -24 -7 -69 -4 -100 4 -43 2 -60 -9 -69 -12 -10 -17 -10 -25 0 -16 20 -25 96 -12 100 8 3 7 26 -4 83 -9 44 -21 116 -27 160 -6 44 -18 123 -25 175 -8 52 -19 131 -25 175 -6 44 -15 99 -20 123 -15 65 -13 100 8 105 27 7 204 7 231 0z"/>
<path d="M2553 2990 l-23 -9 0 -903 c0 -551 4 -909 10 -918 8 -12 44 -16 202 -18 271 -4 397 7 471 42 114 55 187 159 207 293 12 87 13 1097 0 1184 -5 36 -16 79 -25 95 -8 16 -15 33 -15 37 0 15 -69 99 -100 122 -28 21 -66 38 -140 65 -44 15 -554 25 -587 10z m501 -274 c18 -7 44 -29 57 -47 l24 -34 0 -565 c0 -540 -1 -566 -19 -597 -32 -53 -67 -65 -181 -61 l-100 3 -3 644 c-1 467 1 648 9 657 16 19 168 19 213 0z"/>
<path d="M3638 2994 c-17 -5 -18 -58 -18 -924 l0 -918 23 -6 c31 -8 405 -6 507 3 96 9 179 42 240 97 48 44 99 147 111 227 6 38 9 296 7 643 -3 578 -3 579 -26 633 -33 79 -79 137 -136 175 -92 61 -131 67 -426 71 -146 2 -273 2 -282 -1z m500 -279 c22 -9 46 -29 58 -48 18 -31 19 -55 19 -598 0 -622 2 -601 -61 -640 -28 -17 -47 -19 -136 -17 l-103 3 -3 644 c-1 467 1 648 9 657 16 20 167 19 217 -1z"/>
<path d="M4718 2993 c-17 -4 -18 -56 -18 -918 0 -894 0 -915 19 -925 30 -15 743 -14 759 2 8 8 12 52 12 130 0 65 -1 119 -2 120 -2 1 -113 5 -248 8 l-245 5 -3 239 c-2 165 1 243 9 252 8 10 56 14 198 16 l186 3 3 110 c4 171 24 155 -191 155 -129 0 -187 4 -195 12 -16 16 -17 480 -2 509 10 18 24 19 238 19 164 0 231 3 240 12 8 8 12 51 12 129 0 97 -3 118 -16 123 -18 7 -730 6 -756 -1z"/>
<path d="M5698 2993 c-17 -4 -18 -57 -18 -923 l0 -919 37 -7 c20 -4 150 -4 287 -1 268 6 303 12 388 65 44 27 96 90 121 145 44 98 47 420 4 552 -18 58 -32 79 -81 128 l-58 57 45 41 c105 92 117 136 128 489 5 157 13 302 18 323 12 51 -2 57 -133 57 -123 0 -151 -8 -160 -47 -3 -15 -10 -154 -15 -309 -9 -298 -12 -315 -63 -360 -31 -28 -101 -46 -168 -42 l-55 3 -3 365 c-2 329 -4 366 -19 378 -16 12 -214 16 -255 5z m479 -1041 c69 -36 76 -61 77 -261 0 -194 -6 -220 -63 -260 -25 -18 -44 -21 -125 -21 l-96 0 0 279 c0 258 1 280 18 285 36 10 151 -3 189 -22z"/>
</g>


</svg>